# xmcd
#
# Track frame offsets:
#	150
#	23844
#	36675
#	51887
#	66422
#	81595
#	97407
#	112670
#	124967
#	141530
#	155375
#	167450
#	181090
#	197677
#	215272
#	228790
#
# Disc length: 3237 seconds
#
# Revision: 5
# Processed by: cddbd v1.5.2PL0 Copyright (c) Steve Scherf et al.
# Submitted via: dBpowerAMP V4.0
#
DISCID=e50ca310
DTITLE=David Allan Coe - 16 Biggest Hits
DYEAR=1999
DGENRE=Country
TTITLE0=You Never Even Called Me By My Name
TTITLE1=Would You Lay With Me (In A Field Of Stone)
TTITLE2=Longhaired Redneck
TTITLE3=Willie, Waylon, And Me
TTITLE4=Lately I've Been Thinking Too Much Lately
TTITLE5=If This Is Just A Game
TTITLE6=Now I Lay Me Down To Cheat
TTITLE7=Cheap Thrills
TTITLE8=Mona Lisa Lost Her Smile
TTITLE9=She Used To Love Me A Lot
TTITLE10=I'm Gonna Hurt Her On The Radio
TTITLE11=Need A Little Time Off For Bad Behavior
TTITLE12=Tanya Montana
TTITLE13=Son Of The South
TTITLE14=Tennessee Whiskey
TTITLE15=The Ride
EXTD=
EXTT0=
EXTT1=
EXTT2=
EXTT3=
EXTT4=
EXTT5=
EXTT6=
EXTT7=
EXTT8=
EXTT9=
EXTT10=
EXTT11=
EXTT12=
EXTT13=
EXTT14=
EXTT15=
PLAYORDER=
